<svg width="436" height="204" viewBox="0 0 436 204" fill="none" xmlns="http://www.w3.org/2000/svg">
<path d="M410.771 0V162.513C377.268 165.849 331.067 164.638 268.49 152.726C144.928 129.209 62.2728 150.034 24.7705 164.046V0H410.771Z" fill="#6327FE"/>
<path d="M410.771 162.513V179.345C377.139 181.522 330.899 178.689 268.567 164.496C146.119 136.615 62.8294 154.374 24.7705 167.046V164.046C62.2728 150.034 144.928 129.209 268.49 152.726C331.067 164.638 377.268 165.849 410.771 162.513Z" fill="white"/>
<path d="M153.111 26.3493C155.311 26.3493 156.994 27.1349 158.172 28.6932C159.117 29.9295 159.596 31.4363 159.596 33.2006C159.596 36.3687 158.535 39.9747 156.399 44.0185C154.534 47.5086 152.204 50.6381 149.408 53.4198C147.57 55.2099 146.133 56.1114 145.084 56.1114C144.398 56.1114 143.751 55.7637 143.169 55.0811C142.741 54.5917 142.534 54.038 142.534 53.4198C142.534 52.2736 143.531 50.9729 145.538 49.5048C148.36 47.4185 150.599 45.139 152.282 42.6534C154.742 39.0603 155.971 36.0339 155.971 33.5484C155.971 32.5438 155.751 31.784 155.311 31.2946C154.871 30.8052 154.211 30.5606 153.318 30.5606C151.518 30.5606 148.955 31.8613 145.641 34.4756C141.874 37.4119 137.887 41.4042 133.693 46.4654C128.346 52.8918 124.282 59.2151 121.498 65.4483C118.612 71.9133 117.175 77.4252 117.175 81.9842C117.175 84.1736 117.809 86.028 119.091 87.5606C120.502 89.2863 122.223 90.1492 124.256 90.1492C127.803 90.1492 132.256 87.406 137.628 81.9327C139.233 80.2714 141.188 77.8502 143.479 74.695C144.994 72.6731 145.952 71.2307 146.379 70.3936C146.871 69.4535 147.441 68.977 148.101 68.977C148.826 68.977 149.175 69.3247 149.175 70.0073C149.175 71.4754 147.337 74.7723 143.673 79.8979C140.618 84.1736 137.266 87.6636 133.589 90.3681C129.46 93.4074 125.55 94.9142 121.887 94.9142C118.055 94.9142 115.078 93.2013 112.98 89.7757C111.634 87.5863 110.961 85.1008 110.961 82.2933C110.961 75.2488 114.301 66.3627 120.993 55.622C126.702 46.4912 132.722 39.1376 139.052 33.5484C144.515 28.7447 149.214 26.3493 153.111 26.3493Z" fill="white"/>
<path d="M169.888 57.7083C172.581 57.7083 173.927 59.3439 173.927 62.6021C173.927 66.9422 171.908 72.4413 167.882 79.0866C163.493 86.2985 159.247 89.9045 155.144 89.9045C153.241 89.9045 151.856 89.0287 150.962 87.2644C150.509 86.3886 150.276 85.3197 150.276 84.0834C150.276 79.9108 151.713 75.3776 154.6 70.4838C157.293 65.9505 160.451 62.4218 164.089 59.9105C166.212 58.4424 168.141 57.7083 169.888 57.7083ZM164.775 76.2018C163.959 75.545 163.545 75.0427 163.545 74.6821C163.545 74.4246 164.063 73.7034 165.125 72.5314C168.076 69.2345 169.552 66.5816 169.552 64.5597C169.552 64.3021 169.474 64.0445 169.306 63.7741C169.047 63.2847 168.633 63.04 168.076 63.04C167.027 63.04 165.487 64.0574 163.455 66.0793C160.827 68.6937 158.833 71.3852 157.448 74.1541C155.843 77.3222 155.04 79.9494 155.04 82.0357C155.04 82.5895 155.183 83.0789 155.48 83.5039C155.908 84.0963 156.451 84.3796 157.098 84.3796C158.678 84.3796 160.361 83.2077 162.16 80.8509C162.95 79.8721 163.584 78.8676 164.076 77.8116C164.568 76.7813 164.801 76.2404 164.775 76.2018Z" fill="white"/>
<path d="M182.328 73.0337C181.344 75.5836 180.606 77.6313 180.114 79.2025C179.622 80.7736 179.377 81.8554 179.377 82.4865C179.377 83.2978 179.765 83.7099 180.555 83.7099C181.733 83.7099 183.26 82.6024 185.124 80.3873C186.004 79.3055 187.325 77.3737 189.06 74.5662C189.746 73.4587 190.471 72.9049 191.221 72.9049C192.076 72.9049 192.503 73.317 192.503 74.1284C192.503 75.5321 190.885 78.3654 187.636 82.641C184.257 87.1098 181.124 89.3507 178.237 89.3507C176.995 89.3507 175.972 88.8355 175.182 87.7795C174.626 87.0326 174.341 86.1182 174.341 85.0364C174.341 83.2077 174.897 80.6835 176.011 77.451C177.124 74.2185 178.781 70.2906 180.982 65.6543C186.626 53.8834 192.373 44.1731 198.251 36.5362C202.937 30.406 206.82 27.3409 209.901 27.3409C210.885 27.3409 211.688 27.7144 212.309 28.4614C212.969 29.2083 213.293 30.0712 213.293 31.0499C213.293 35.6218 209.189 43.2201 200.995 53.8577C197.319 58.5841 192.93 63.3233 187.817 68.0497C186.496 69.2732 184.658 70.9345 182.328 73.0337ZM185.823 65.2422C192.645 59.434 198.743 52.0933 204.115 43.2201C206.898 38.6225 208.296 35.5703 208.296 34.0764C208.296 33.3552 207.985 32.9946 207.364 32.9946C205.565 32.9946 202.277 36.5619 197.526 43.7094C193.59 49.5949 189.694 56.7682 185.823 65.2422Z" fill="white"/>
<path d="M210.367 81.1986C209.28 83.0917 208.218 84.6887 207.17 85.9894C205.098 88.5393 203.053 89.8014 201.021 89.8014C199.247 89.8014 197.875 88.9643 196.891 87.303C196.27 86.2212 195.959 84.9591 195.959 83.491C195.959 79.8721 197.111 75.8798 199.402 71.5011C201.966 66.646 205.046 62.9112 208.645 60.2969C211.001 58.5969 213.28 57.747 215.48 57.747C216.853 57.747 218.005 58.172 218.924 59.0219C219.713 59.7689 220.102 60.6189 220.102 61.5719C220.102 62.2931 219.817 63.2847 219.26 64.5597C219.752 65.2422 219.998 65.8475 219.998 66.3755C219.998 67.0581 219.545 68.1914 218.626 69.7497C217.668 71.3466 216.723 73.4715 215.778 76.1116C214.755 78.9191 214.251 81.1729 214.251 82.8599C214.251 84.225 214.665 85.3584 215.48 86.2341C215.713 86.4659 216.387 86.8394 217.5 87.3545C218.315 87.7409 218.73 88.4363 218.73 89.4151C218.73 90.0332 218.497 90.5355 218.043 90.9347C217.552 91.3597 216.982 91.5658 216.322 91.5658C214.548 91.5658 213.021 90.7802 211.752 89.2219C210.704 87.9469 210.173 86.35 210.173 84.4311C210.173 83.7743 210.238 82.7054 210.367 81.1986ZM216.516 65.1006C216.128 64.3794 215.7 63.8513 215.234 63.5165C214.768 63.1688 214.276 63.0014 213.759 63.0014C211.26 63.0014 208.555 65.165 205.642 69.505C202.432 74.2958 200.826 78.3654 200.826 81.688C200.826 82.4993 200.982 83.1175 201.292 83.5425C201.603 83.9675 202.069 84.1735 202.69 84.1735C204.27 84.1735 206.095 82.5122 208.192 79.1767C209.37 77.348 210.833 74.6564 212.568 71.1019C213.72 68.7838 214.548 67.2513 215.079 66.5043C215.351 66.1308 215.817 65.6543 216.516 65.1006Z" fill="white"/>
<path d="M252.892 44.6625C255.092 44.6625 256.775 45.448 257.953 47.0063C258.898 48.2427 259.377 49.7494 259.377 51.5138C259.377 54.6819 258.316 58.2879 256.18 62.3317C254.316 65.8217 251.986 68.9512 249.189 71.733C247.351 73.5231 245.914 74.4246 244.866 74.4246C244.18 74.4246 243.532 74.0768 242.95 73.3943C242.523 72.9049 242.316 72.3511 242.316 71.733C242.316 70.5868 243.312 69.2861 245.319 67.8179C248.141 65.7316 250.38 63.4521 252.063 60.9666C254.523 57.3735 255.753 54.347 255.753 51.8615C255.753 50.857 255.533 50.0972 255.092 49.6078C254.652 49.1184 253.992 48.8737 253.099 48.8737C251.3 48.8737 248.736 50.1744 245.422 52.7888C241.655 55.725 237.668 59.7174 233.474 64.7786C228.128 71.2049 224.063 77.5283 221.28 83.7614C218.393 90.2264 216.956 95.7384 216.956 100.297C216.956 102.487 217.59 104.341 218.872 105.874C220.283 107.599 222.005 108.462 224.037 108.462C227.584 108.462 232.037 105.719 237.409 100.246C239.015 98.5845 240.969 96.1634 243.261 93.0082C244.775 90.9862 245.733 89.5439 246.16 88.7068C246.652 87.7666 247.222 87.2901 247.882 87.2901C248.607 87.2901 248.956 87.6378 248.956 88.3204C248.956 89.7885 247.118 93.0854 243.455 98.2111C240.4 102.487 237.047 105.977 233.37 108.681C229.241 111.721 225.331 113.227 221.668 113.227C217.836 113.227 214.859 111.514 212.762 108.089C211.415 105.899 210.742 103.414 210.742 100.606C210.742 93.5619 214.082 84.6758 220.775 73.9352C226.484 64.8043 232.503 57.4508 238.833 51.8615C244.296 47.0578 248.982 44.6625 252.892 44.6625Z" fill="white"/>
<path d="M269.657 76.0343C272.349 76.0343 273.696 77.6699 273.696 80.9282C273.696 85.2682 271.676 90.7673 267.65 97.4126C263.262 104.625 259.016 108.23 254.912 108.23C253.009 108.23 251.624 107.355 250.731 105.59C250.278 104.715 250.045 103.646 250.045 102.409C250.045 98.2368 251.482 93.7036 254.369 88.8098C257.061 84.2766 260.22 80.7479 263.857 78.2366C265.993 76.7684 267.922 76.0343 269.657 76.0343ZM264.544 94.5278C263.728 93.871 263.314 93.3687 263.314 93.0081C263.314 92.7506 263.832 92.0294 264.893 90.8574C267.845 87.5606 269.32 84.9076 269.32 82.8857C269.32 82.6281 269.243 82.3705 269.074 82.1001C268.815 81.6107 268.401 81.366 267.845 81.366C266.796 81.366 265.256 82.3834 263.223 84.4053C260.595 87.0197 258.602 89.7113 257.217 92.4801C255.611 95.6482 254.809 98.2754 254.809 100.362C254.809 100.916 254.951 101.405 255.249 101.83C255.676 102.422 256.22 102.706 256.867 102.706C258.446 102.706 260.129 101.534 261.929 99.1769C262.718 98.1982 263.353 97.1936 263.844 96.1376C264.349 95.0945 264.582 94.5536 264.544 94.5278Z" fill="white"/>
<path d="M282.111 91.3468C281.127 93.8968 280.39 95.9444 279.898 97.5156C279.406 99.0868 279.16 100.169 279.16 100.8C279.16 101.611 279.548 102.023 280.338 102.023C281.516 102.023 283.043 100.916 284.907 98.7004C285.788 97.6186 287.108 95.6869 288.843 92.8794C289.529 91.7718 290.254 91.2181 291.005 91.2181C291.859 91.2181 292.286 91.6302 292.286 92.4415C292.286 93.8453 290.668 96.6785 287.419 100.954C284.04 105.423 280.907 107.664 278.021 107.664C276.778 107.664 275.755 107.149 274.965 106.093C274.409 105.346 274.124 104.431 274.124 103.35C274.124 101.521 274.681 98.9966 275.794 95.7641C276.907 92.5317 278.564 88.6037 280.765 83.9675C286.409 72.1966 292.157 62.4862 298.034 54.8493C302.72 48.7192 306.604 45.6541 309.685 45.6541C310.668 45.6541 311.471 46.0276 312.092 46.7745C312.753 47.5215 313.076 48.3843 313.076 49.3631C313.076 53.9349 308.973 61.5332 300.778 72.1708C297.102 76.8972 292.713 81.6365 287.6 86.3629C286.267 87.5992 284.428 89.2605 282.111 91.3468ZM285.593 83.5682C292.416 77.7601 298.513 70.4194 303.885 61.5461C306.668 56.9485 308.066 53.8963 308.066 52.4024C308.066 51.6812 307.756 51.3206 307.134 51.3206C305.335 51.3206 302.047 54.8879 297.296 62.0355C293.374 67.9081 289.464 75.0814 285.593 83.5682Z" fill="white"/>
<path d="M310.136 99.5118C309.048 101.405 307.987 103.002 306.938 104.303C304.867 106.852 302.822 108.115 300.789 108.115C299.016 108.115 297.643 107.277 296.66 105.616C296.038 104.534 295.728 103.272 295.728 101.804C295.728 98.1853 296.88 94.193 299.171 89.8143C301.734 84.9591 304.815 81.2244 308.414 78.6101C310.77 76.9101 313.048 76.0601 315.249 76.0601C316.621 76.0601 317.773 76.4851 318.692 77.3351C319.482 78.082 319.87 78.932 319.87 79.885C319.87 80.6062 319.586 81.5979 319.029 82.8728C319.521 83.5554 319.767 84.1607 319.767 84.6887C319.767 85.3712 319.314 86.5045 318.395 88.0628C317.437 89.6598 316.492 91.7847 315.547 94.4248C314.524 97.2323 314.019 99.486 314.019 101.173C314.019 102.538 314.433 103.672 315.249 104.547C315.482 104.779 316.155 105.153 317.268 105.668C318.084 106.054 318.498 106.749 318.498 107.728C318.498 108.346 318.265 108.849 317.812 109.248C317.32 109.673 316.751 109.879 316.09 109.879C314.317 109.879 312.789 109.093 311.521 107.535C310.472 106.26 309.941 104.663 309.941 102.744C309.941 102.087 310.006 101.019 310.136 99.5118ZM316.285 83.4137C315.896 82.6925 315.469 82.1645 315.003 81.8297C314.537 81.4819 314.045 81.3145 313.527 81.3145C311.029 81.3145 308.323 83.4781 305.411 87.8181C302.2 92.6089 300.595 96.6785 300.595 100.001C300.595 100.813 300.75 101.431 301.061 101.856C301.372 102.281 301.838 102.487 302.459 102.487C304.038 102.487 305.864 100.825 307.961 97.4899C309.139 95.6611 310.602 92.9695 312.336 89.4151C313.488 87.097 314.317 85.5644 314.848 84.8175C315.119 84.444 315.598 83.9675 316.285 83.4137Z" fill="white"/>
<path opacity="0.49" d="M55.9681 156.55C63.9969 156.55 70.5056 150.075 70.5056 142.088C70.5056 134.101 63.9969 127.625 55.9681 127.625C47.9393 127.625 41.4307 134.101 41.4307 142.088C41.4307 150.075 47.9393 156.55 55.9681 156.55Z" fill="white"/>
<path opacity="0.49" d="M285.59 160.762C293.619 160.762 300.128 154.287 300.128 146.299C300.128 138.312 293.619 131.837 285.59 131.837C277.561 131.837 271.053 138.312 271.053 146.299C271.053 154.287 277.561 160.762 285.59 160.762Z" fill="white"/>
<path opacity="0.49" d="M89.2762 121.933C93.2942 121.933 96.5514 118.693 96.5514 114.695C96.5514 110.698 93.2942 107.458 89.2762 107.458C85.2582 107.458 82.001 110.698 82.001 114.695C82.001 118.693 85.2582 121.933 89.2762 121.933Z" fill="white"/>
<path opacity="0.49" d="M166.871 146.312C170.889 146.312 174.146 143.072 174.146 139.074C174.146 135.077 170.889 131.837 166.871 131.837C162.853 131.837 159.596 135.077 159.596 139.074C159.596 143.072 162.853 146.312 166.871 146.312Z" fill="white"/>
<path opacity="0.49" d="M340.451 137.941C344.469 137.941 347.726 134.701 347.726 130.703C347.726 126.706 344.469 123.466 340.451 123.466C336.433 123.466 333.176 126.706 333.176 130.703C333.176 134.701 336.433 137.941 340.451 137.941Z" fill="white"/>
<path opacity="0.49" d="M47.1389 97.2709C49.5196 97.2709 51.4496 95.3509 51.4496 92.9824C51.4496 90.6139 49.5196 88.6939 47.1389 88.6939C44.7581 88.6939 42.8281 90.6139 42.8281 92.9824C42.8281 95.3509 44.7581 97.2709 47.1389 97.2709Z" fill="white"/>
<path opacity="0.49" d="M373.113 154.876C375.494 154.876 377.424 152.956 377.424 150.588C377.424 148.219 375.494 146.299 373.113 146.299C370.733 146.299 368.803 148.219 368.803 150.588C368.803 152.956 370.733 154.876 373.113 154.876Z" fill="white"/>
<path opacity="0.49" d="M245.732 134.992C248.112 134.992 250.042 133.072 250.042 130.703C250.042 128.335 248.112 126.415 245.732 126.415C243.351 126.415 241.421 128.335 241.421 130.703C241.421 133.072 243.351 134.992 245.732 134.992Z" fill="white"/>
<path opacity="0.49" d="M386.317 104.818C388.697 104.818 390.627 102.898 390.627 100.529C390.627 98.1607 388.697 96.2407 386.317 96.2407C383.936 96.2407 382.006 98.1607 382.006 100.529C382.006 102.898 383.936 104.818 386.317 104.818Z" fill="white"/>
<path opacity="0.49" d="M398.706 136.872C400.415 136.872 401.8 135.494 401.8 133.794C401.8 132.094 400.415 130.716 398.706 130.716C396.997 130.716 395.612 132.094 395.612 133.794C395.612 135.494 396.997 136.872 398.706 136.872Z" fill="white"/>
<path opacity="0.49" d="M121.872 131.94C124.253 131.94 126.183 130.02 126.183 127.651C126.183 125.283 124.253 123.363 121.872 123.363C119.492 123.363 117.562 125.283 117.562 127.651C117.562 130.02 119.492 131.94 121.872 131.94Z" fill="white"/>
<path opacity="0.49" d="M148.1 112.03C149.287 112.03 150.249 111.073 150.249 109.892C150.249 108.711 149.287 107.754 148.1 107.754C146.913 107.754 145.951 108.711 145.951 109.892C145.951 111.073 146.913 112.03 148.1 112.03Z" fill="white"/>
<path opacity="0.49" d="M79.853 78.1722C81.0398 78.1722 82.0019 77.2151 82.0019 76.0344C82.0019 74.8537 81.0398 73.8965 79.853 73.8965C78.6662 73.8965 77.7041 74.8537 77.7041 76.0344C77.7041 77.2151 78.6662 78.1722 79.853 78.1722Z" fill="white"/>
<path opacity="0.49" d="M202.975 127.651C204.162 127.651 205.124 126.694 205.124 125.513C205.124 124.333 204.162 123.376 202.975 123.376C201.788 123.376 200.826 124.333 200.826 125.513C200.826 126.694 201.788 127.651 202.975 127.651Z" fill="white"/>
<path opacity="0.49" d="M352.517 86.5174C353.704 86.5174 354.666 85.5603 354.666 84.3796C354.666 83.1989 353.704 82.2418 352.517 82.2418C351.33 82.2418 350.368 83.1989 350.368 84.3796C350.368 85.5603 351.33 86.5174 352.517 86.5174Z" fill="white"/>
</svg>
