<svg width="37" height="65" viewBox="0 0 37 65" fill="none" xmlns="http://www.w3.org/2000/svg">
<g clip-path="url(#clip0_60_1756)">
<path d="M36.4505 7.62821V57.3718C36.4505 57.5721 36.3695 57.7638 36.2241 57.8983C35.9865 58.1243 35.7628 58.4047 35.5615 58.7338C34.9493 59.7552 34.7675 60.9026 34.7396 61.1029C34.5942 64.1216 24.499 64.9285 18.519 64.9285C12.5335 64.9285 2.41871 64.1187 2.29849 61.0972C2.27613 60.9169 2.1 59.7638 1.47656 58.7309C1.28087 58.4047 1.06001 58.1243 0.819578 57.9011C0.674203 57.7638 0.590332 57.5721 0.590332 57.3718V7.63107C0.590332 7.52806 0.612697 7.43364 0.649041 7.34494C0.651837 7.33636 0.657428 7.33063 0.660224 7.32491C0.676998 7.28771 0.696568 7.25338 0.718933 7.2219C0.72732 7.2076 0.735707 7.19902 0.744095 7.18757C0.763664 7.16182 0.78603 7.13607 0.811191 7.11318C0.813987 7.11031 0.816782 7.10459 0.819578 7.10173C1.0628 6.87569 1.28366 6.59814 1.47656 6.27482C2.15312 5.15319 2.30129 3.8885 2.30129 3.87419C2.30409 3.86275 2.30968 3.84844 2.30968 3.837C2.57527 0.869834 12.5754 0.0715332 18.519 0.0715332C24.4655 0.0715332 34.4628 0.869834 34.7284 3.837C34.7312 3.84844 34.7368 3.85989 34.7368 3.87419C34.7396 3.88564 34.8961 5.16177 35.5643 6.27196C35.7544 6.5867 35.9697 6.86138 36.2045 7.08456L36.2157 7.09601C36.2185 7.09887 36.2213 7.10173 36.2241 7.10459L36.2269 7.10745C36.2576 7.13893 36.2856 7.1704 36.3136 7.2076C36.3191 7.21332 36.3219 7.22191 36.3275 7.23049C36.3471 7.26196 36.3667 7.29344 36.3834 7.32777C36.3862 7.33636 36.3918 7.34494 36.3946 7.35639C36.4086 7.39072 36.4198 7.42792 36.4282 7.46512C36.431 7.4737 36.4338 7.48228 36.4366 7.49087C36.4366 7.49659 36.4394 7.50517 36.4422 7.5109C36.4478 7.55095 36.4505 7.58815 36.4505 7.62821ZM35.0555 56.9741L35.0527 9.38218C35.0443 9.3879 35.0359 9.39077 35.0275 9.39649C34.9101 9.45658 34.7787 9.51952 34.6417 9.58247C34.5663 9.61681 34.4712 9.65687 34.3678 9.69692C34.2252 9.75701 34.0658 9.81424 33.8953 9.87432C33.8869 9.87718 33.8785 9.88005 33.8701 9.88291C32.9783 10.2005 31.9159 10.4609 30.7697 10.6726C30.4175 10.7384 30.0568 10.7985 29.6878 10.8557C29.1622 10.9416 28.6087 11.0217 28.0188 11.0932L27.6497 11.1362C27.4093 11.1676 27.1577 11.1962 26.9005 11.222C26.811 11.2306 26.7216 11.242 26.6293 11.2477C26.5259 11.2592 26.4252 11.2706 26.3218 11.2792C26.031 11.3078 25.7291 11.3364 25.4272 11.3593L25.1672 11.3794C24.9491 11.3965 24.7283 11.4137 24.5074 11.4309C24.362 11.4423 24.1971 11.4509 24.0321 11.4623C23.884 11.4709 23.7246 11.4824 23.5597 11.491C23.2465 11.511 22.9194 11.5282 22.5923 11.5425C22.2792 11.5568 21.9661 11.5682 21.6446 11.5797C21.2001 11.5968 20.75 11.6083 20.2943 11.6169C20.0623 11.6226 19.8274 11.6254 19.5898 11.6283H19.5227C19.19 11.6312 18.8545 11.634 18.519 11.634C17.9459 11.634 7.32793 11.6054 2.70946 9.70551C2.70666 9.70551 2.70666 9.70551 2.70666 9.70551C2.44666 9.59964 2.20624 9.48805 1.98817 9.36788V57.017C1.99376 57.017 2.41871 57.9097 6.81072 58.7023C9.98382 59.2746 14.141 59.5893 18.519 59.5893C21.2448 59.5893 23.9538 59.4634 26.3665 59.223C26.4252 59.2173 26.4811 59.2116 26.5371 59.2059C26.6824 59.1916 26.825 59.1801 26.9648 59.1601C26.9928 59.1601 27.0207 59.1544 27.0487 59.1515C31.1136 58.7052 33.2439 58.0642 34.2587 57.5807C34.2615 57.5778 34.2615 57.5778 34.2643 57.5778C34.3091 57.5549 34.3538 57.5349 34.3957 57.512C34.4013 57.5091 34.4069 57.5063 34.4125 57.5034C34.4488 57.4834 34.4852 57.4662 34.5159 57.449C34.5271 57.4433 34.5355 57.4376 34.5439 57.4319C34.5718 57.4176 34.5998 57.4004 34.625 57.3861C34.6361 57.3775 34.6473 57.3718 34.6557 57.3661C34.6781 57.3518 34.7004 57.3375 34.72 57.326C34.7312 57.3174 34.7424 57.3088 34.7536 57.3003C34.7703 57.2917 34.7871 57.2802 34.8011 57.2688C34.8123 57.2602 34.8235 57.2516 34.8346 57.243C34.8458 57.2344 34.8598 57.223 34.871 57.2144C34.8822 57.2058 34.8906 57.1973 34.9017 57.1887C34.9101 57.1801 34.9213 57.1715 34.9297 57.1658L34.9549 57.14C34.9632 57.1314 34.9688 57.1257 34.9744 57.1171C34.9828 57.1086 34.9912 57.1 34.9968 57.0914C35.0024 57.0857 35.008 57.0799 35.0108 57.0742C35.0164 57.0685 35.0219 57.0599 35.0275 57.0513C35.0303 57.0456 35.0359 57.0399 35.0387 57.037C35.0415 57.0284 35.0443 57.0227 35.0471 57.017C35.0499 57.0113 35.0527 57.0055 35.0527 57.0027C35.0527 56.9941 35.0555 56.9827 35.0555 56.9741ZM34.9129 7.77413C34.72 7.54809 34.5411 7.2963 34.3734 7.02448C34.0686 6.51517 33.8506 5.98583 33.694 5.51657C33.6828 5.5223 33.6688 5.53088 33.6549 5.53946C33.5794 5.58811 33.4983 5.63389 33.4144 5.68253C33.3893 5.69684 33.3641 5.70828 33.339 5.72259C33.2355 5.77981 33.1293 5.83418 33.0147 5.88568C33.0007 5.8914 32.9839 5.89999 32.9699 5.90571C32.8665 5.95149 32.7575 6.00013 32.6456 6.04591C32.6121 6.05736 32.5785 6.07167 32.545 6.08597C32.4136 6.13748 32.2822 6.18612 32.1396 6.23476C31.3736 6.50372 30.4538 6.73835 29.411 6.94436C28.7708 7.07312 28.0859 7.18757 27.359 7.28771C27.3143 7.2963 27.2667 7.30202 27.2192 7.30774C26.4392 7.41647 25.6117 7.50517 24.7478 7.58243C23.7498 7.67113 22.7042 7.7398 21.6222 7.78272C20.6158 7.82278 19.5786 7.84567 18.519 7.84567C12.8829 7.84567 7.79201 7.2448 4.90127 6.23476C4.75869 6.18612 4.6245 6.13748 4.4959 6.08597C4.46235 6.07167 4.4288 6.05736 4.39526 6.04591C4.28343 6.00013 4.1744 5.95149 4.07096 5.90571C4.05698 5.89999 4.0402 5.8914 4.02623 5.88568C3.9116 5.83418 3.80537 5.77981 3.70193 5.72259C3.67676 5.71114 3.6516 5.69684 3.62644 5.68253C3.54257 5.63675 3.46429 5.58811 3.38881 5.54233C3.37483 5.53374 3.35806 5.52516 3.34687 5.51657C3.19311 5.98583 2.97505 6.5123 2.66752 7.02161C2.50258 7.2963 2.32086 7.55095 2.12516 7.77986C2.44946 8.06599 3.50623 8.72122 6.81352 9.31637C9.98382 9.88863 14.1438 10.2034 18.519 10.2034C19.5758 10.2034 20.6158 10.1833 21.6334 10.149C21.8627 10.1404 22.0835 10.1318 22.3044 10.1204C22.4162 10.1175 22.528 10.1118 22.6371 10.1061C22.9222 10.0946 23.2046 10.0803 23.4814 10.0603C23.6407 10.0517 23.7945 10.046 23.9455 10.0346C24.0042 10.0317 24.0573 10.026 24.1132 10.0231C24.1831 10.0202 24.253 10.0145 24.3257 10.0088C24.3508 10.0059 24.376 10.0059 24.4012 10.0031C24.6332 9.98878 24.8485 9.97161 25.0609 9.95444L25.2986 9.93441C25.307 9.93441 25.3181 9.93441 25.3293 9.93155C25.6201 9.91152 25.9108 9.88291 26.1932 9.85429C26.3889 9.83713 26.5734 9.8171 26.7579 9.79707C27.0067 9.77132 27.2472 9.74843 27.4848 9.71695L27.8203 9.67689C27.8678 9.67117 27.9153 9.66545 27.9629 9.65973C28.1278 9.63684 28.2899 9.61681 28.4493 9.59678C28.5555 9.57961 28.659 9.5653 28.7624 9.551C28.8603 9.53669 28.9581 9.52238 29.0532 9.50808C29.193 9.48805 29.3299 9.46516 29.4669 9.44513C29.534 9.43368 29.6011 9.42224 29.6654 9.41366C29.7661 9.39649 29.8639 9.37932 29.9618 9.36215C30.0792 9.34212 30.1994 9.31923 30.314 9.2992L30.3699 9.29062C30.4985 9.26487 30.6299 9.24198 30.7529 9.21623C30.7837 9.2105 30.8172 9.20478 30.848 9.1962C30.8983 9.18761 30.9431 9.17903 30.9906 9.16758C31.0633 9.15328 31.136 9.13897 31.2086 9.1218C31.2701 9.11036 31.3289 9.09605 31.3876 9.08461C31.4491 9.0703 31.5022 9.05886 31.5581 9.04741C31.5889 9.03883 31.6224 9.0331 31.6532 9.02452C31.7063 9.01307 31.7566 8.99877 31.8069 8.98732C32.0445 8.93296 32.2598 8.87859 32.4639 8.82137C32.5618 8.79562 32.6484 8.76986 32.7323 8.74411C32.8441 8.7155 32.9476 8.68403 33.0454 8.65255C33.1069 8.63252 33.1656 8.61536 33.2215 8.59533C33.2439 8.5896 33.2663 8.58102 33.2858 8.5753C33.339 8.55813 33.3893 8.54096 33.4396 8.52093C33.5067 8.49804 33.5682 8.47515 33.6325 8.45226C33.6409 8.4494 33.6521 8.44654 33.6605 8.44082C33.6856 8.43223 33.708 8.42365 33.7303 8.41506C33.7946 8.38931 33.8562 8.36642 33.9149 8.34067C33.9316 8.33495 33.9484 8.32636 33.9624 8.32064C34.0295 8.29203 34.0938 8.26628 34.1525 8.23766C34.1553 8.23766 34.1553 8.2348 34.1581 8.2348C34.5663 8.04596 34.7899 7.88573 34.9129 7.77413ZM33.7555 59.3089C33.7415 59.3146 33.7248 59.3203 33.7108 59.3232C33.5346 59.3833 33.3529 59.4434 33.16 59.5006C33.1488 59.5035 33.1349 59.5063 33.1237 59.5092C32.9252 59.5693 32.7183 59.6265 32.503 59.6809C32.4947 59.6837 32.4863 59.6866 32.4779 59.6894C32.2626 59.7438 32.039 59.7953 31.8069 59.8468C31.7818 59.8525 31.7566 59.8611 31.7286 59.8668C31.505 59.9155 31.2729 59.9641 31.0325 60.0099C30.9962 60.0185 30.957 60.0242 30.9207 60.0328C30.6831 60.0786 30.437 60.1215 30.1854 60.1644C30.1407 60.173 30.096 60.1787 30.0512 60.1873C29.7968 60.2302 29.5368 60.2703 29.2684 60.3103C29.2209 60.3161 29.1762 60.3218 29.1287 60.3304C28.8547 60.3704 28.5723 60.4076 28.2816 60.4448C28.2424 60.4505 28.2033 60.4563 28.1641 60.4591C27.8734 60.4963 27.577 60.5307 27.2695 60.565C27.2528 60.5679 27.236 60.5707 27.2192 60.5707C27.2108 60.5736 27.2024 60.5736 27.1968 60.5736C27.0291 60.5965 26.853 60.6136 26.6712 60.6308C24.1747 60.8855 21.3539 61.0199 18.519 61.0199H18.3094C18.2674 61.0199 18.2171 61.0199 18.164 61.0171H18.1053C18.0438 61.0171 17.9823 61.0171 17.9096 61.0142C17.9068 61.0142 17.904 61.0142 17.904 61.0142C17.8341 61.0142 17.7586 61.0142 17.6775 61.0114H17.5965C17.5126 61.0085 17.4287 61.0085 17.3365 61.0056H17.3169C17.2274 61.0056 17.1324 61.0028 17.0373 60.9999C16.9982 60.9999 16.9618 60.9999 16.9227 60.997C16.8221 60.9942 16.7214 60.9942 16.6124 60.9913C16.5984 60.9885 16.5844 60.9885 16.5704 60.9885C16.4642 60.9856 16.3524 60.9827 16.2378 60.9799C16.1958 60.977 16.1539 60.977 16.1092 60.9742C16.0029 60.9713 15.8939 60.9684 15.7793 60.9656C15.7429 60.9627 15.7066 60.9627 15.6702 60.9599C15.5556 60.957 15.4382 60.9513 15.3208 60.9484C15.2705 60.9455 15.2229 60.9427 15.1754 60.9427C15.0552 60.937 14.9322 60.9312 14.8092 60.9255C14.7644 60.9255 14.7225 60.9227 14.6778 60.9198C14.552 60.9141 14.4262 60.9084 14.2976 60.9026L14.1382 60.894C14.0096 60.8883 13.881 60.8797 13.7496 60.874C13.6965 60.8712 13.6434 60.8683 13.5903 60.8654C13.4589 60.8568 13.3275 60.8483 13.1933 60.8397C13.1346 60.8368 13.0758 60.834 13.0171 60.8282C12.8774 60.8196 12.7348 60.8111 12.5922 60.8025C12.5475 60.7996 12.4999 60.7939 12.4552 60.791C12.3126 60.7825 12.17 60.771 12.0247 60.7596C11.9632 60.7567 11.9017 60.751 11.8402 60.7453C11.6948 60.7367 11.5494 60.7224 11.404 60.7109C11.3537 60.7081 11.3034 60.7023 11.2531 60.6995C11.1077 60.6852 10.9595 60.6737 10.8113 60.6594C10.7498 60.6537 10.6883 60.648 10.6268 60.6423C10.4731 60.6279 10.3193 60.6136 10.1655 60.5965C10.1236 60.5936 10.0817 60.5907 10.0425 60.585C9.88597 60.5679 9.72942 60.5536 9.57286 60.5364C9.51415 60.5278 9.45823 60.5221 9.39953 60.5164C9.24297 60.4992 9.08641 60.4792 8.92985 60.462C8.88792 60.4563 8.84598 60.4505 8.80405 60.4448C8.65028 60.4277 8.49652 60.4076 8.34276 60.3847C8.28405 60.379 8.22814 60.3704 8.16943 60.3618C8.01007 60.3418 7.84792 60.3189 7.68857 60.296C7.65782 60.2903 7.62706 60.2846 7.59911 60.2817C7.43975 60.2588 7.28319 60.2331 7.12664 60.2073C7.07352 60.1987 7.0204 60.1902 6.96728 60.1816C6.80513 60.1558 6.64578 60.1272 6.48643 60.0986C6.46406 60.0957 6.44169 60.0929 6.41933 60.0872C6.26277 60.0585 6.10621 60.0299 5.95245 59.9985C5.90492 59.9899 5.8546 59.9813 5.80707 59.9698C5.64772 59.9384 5.49116 59.9069 5.3374 59.8726C5.32342 59.8697 5.30665 59.8668 5.28987 59.8611C5.13891 59.8296 4.99074 59.7924 4.84256 59.7581C4.80063 59.7467 4.7559 59.7381 4.71396 59.7266C4.5602 59.6894 4.40923 59.6494 4.26106 59.6093C4.25547 59.6093 4.24708 59.6065 4.2387 59.6036C4.09612 59.5635 3.95633 59.5235 3.81655 59.4806C3.78021 59.4691 3.74107 59.4577 3.70193 59.4462C3.56214 59.4033 3.42236 59.3575 3.28817 59.3117C3.28817 59.3117 3.28817 59.3117 3.28537 59.3117C3.60967 60.2216 3.69074 60.9541 3.69074 60.9656C3.69354 60.9913 3.69633 61.0171 3.69633 61.0428C3.93397 61.8898 9.23458 63.4978 18.519 63.4978C27.8063 63.4978 33.1069 61.8898 33.3473 61.0285C33.3473 60.9999 33.3473 60.9827 33.3501 60.9541C33.3641 60.8454 33.4564 60.1558 33.7555 59.3089ZM33.339 3.95717C33.339 3.95431 33.339 3.95717 33.339 3.95717C33.0398 3.08734 27.7448 1.50218 18.519 1.50218C9.27092 1.50218 3.97311 3.09592 3.69913 3.96003C3.7159 3.9915 3.84451 4.21182 4.46235 4.51798C4.46515 4.51798 4.46515 4.51798 4.46794 4.52084C4.51547 4.54373 4.56579 4.56663 4.61891 4.58952C4.63009 4.59524 4.63848 4.60096 4.64966 4.60668C4.69719 4.62671 4.74751 4.6496 4.79783 4.66963C4.8174 4.67822 4.83697 4.6868 4.85654 4.69538C4.90966 4.71541 4.96557 4.7383 5.02149 4.76119C5.04665 4.76978 5.06622 4.77836 5.09138 4.78694C5.11654 4.79553 5.1445 4.80697 5.17245 4.81556C8.51329 4.06018 13.3582 3.62526 18.519 3.62526C23.6827 3.62526 28.5248 4.06018 31.8684 4.81556C31.8936 4.80697 31.9187 4.79839 31.9439 4.78981C31.9719 4.77836 31.997 4.76978 32.0222 4.75833C32.0725 4.7383 32.1228 4.71827 32.1704 4.70111C32.2011 4.6868 32.2263 4.67535 32.2542 4.66391C32.2962 4.64674 32.3353 4.62957 32.3716 4.61241C32.3996 4.60096 32.4248 4.58952 32.4499 4.57807C32.4863 4.5609 32.5198 4.5466 32.5506 4.52943C32.5757 4.51798 32.5981 4.50654 32.6205 4.49509C32.6512 4.48079 32.6792 4.46362 32.7071 4.44931C32.7267 4.43787 32.7463 4.42642 32.7658 4.41784C32.7938 4.40353 32.8162 4.38922 32.8413 4.37492C32.8581 4.36347 32.8749 4.35489 32.8916 4.34344C32.914 4.32914 32.9364 4.31769 32.9559 4.30339C32.9699 4.2948 32.9839 4.28336 32.9979 4.27477C33.0174 4.26333 33.0342 4.24902 33.051 4.23758C33.065 4.22899 33.0762 4.22041 33.0873 4.21182C33.1041 4.20038 33.1181 4.18607 33.1349 4.17463C33.1433 4.16891 33.1516 4.16032 33.16 4.1546C33.1796 4.13743 33.1992 4.12026 33.2159 4.1031C33.2215 4.10023 33.2243 4.09737 33.2271 4.09451L33.2774 4.04301C33.283 4.03442 33.2886 4.0287 33.2942 4.02012C33.2998 4.0144 33.3026 4.01153 33.3054 4.00581C33.311 4.00009 33.3138 3.99437 33.3194 3.98864C33.3222 3.98578 33.325 3.98006 33.3278 3.9772C33.3306 3.97434 33.3306 3.96861 33.3334 3.96575C33.3362 3.96289 33.3362 3.96003 33.339 3.95717ZM27.8259 5.77123C28.0467 5.73689 28.2592 5.70256 28.4689 5.66536C25.6061 5.27336 22.1478 5.05591 18.519 5.05591C14.893 5.05591 11.4348 5.27336 8.56921 5.66536C8.77888 5.70256 8.99415 5.73689 9.21501 5.77123C9.27092 5.77981 9.32963 5.7884 9.38834 5.79698C9.58684 5.82846 9.78533 5.85707 9.98941 5.88282C10.0341 5.88854 10.0789 5.89713 10.1264 5.90285C10.3668 5.93432 10.6129 5.9658 10.8617 5.99441C10.9204 6.00299 10.9791 6.00872 11.0378 6.01444C11.2503 6.04019 11.4627 6.06308 11.6808 6.08311C11.7367 6.08883 11.7926 6.09456 11.8485 6.10028C12.1085 6.12603 12.3741 6.15178 12.6397 6.17467C12.6956 6.17753 12.7515 6.18326 12.8075 6.18898C13.0339 6.20615 13.2632 6.22331 13.4924 6.24048C13.5595 6.24334 13.6238 6.24907 13.6881 6.25479C13.9649 6.27196 14.2444 6.28912 14.524 6.30629C14.5715 6.30915 14.6191 6.30915 14.6666 6.31201C14.9098 6.32632 15.1558 6.33777 15.4019 6.34921C15.4745 6.35207 15.55 6.35493 15.6227 6.35779C15.9107 6.36924 16.2014 6.37782 16.4922 6.38641C16.5229 6.38641 16.5537 6.38927 16.5844 6.38927C16.85 6.39499 17.1184 6.40071 17.3868 6.40357C17.4651 6.40644 17.5433 6.40644 17.6216 6.4093C17.9208 6.41216 18.2199 6.41502 18.519 6.41502C18.821 6.41502 19.1201 6.41216 19.4193 6.4093C19.4975 6.40644 19.5758 6.40644 19.6541 6.40357C19.9225 6.40071 20.1909 6.39499 20.4564 6.38927C20.4872 6.38927 20.518 6.38641 20.5459 6.38641C20.8395 6.37782 21.1302 6.36924 21.4182 6.35779C21.4909 6.35493 21.5635 6.35207 21.639 6.34921C21.885 6.33777 22.1283 6.32632 22.3715 6.31201C22.419 6.30915 22.4693 6.30915 22.5169 6.30629C22.7964 6.28912 23.076 6.27196 23.35 6.25479C23.4171 6.24907 23.4814 6.24334 23.5485 6.24048C23.7777 6.22331 24.007 6.20615 24.2306 6.18898C24.2865 6.18326 24.3452 6.17753 24.4012 6.17467C24.6667 6.15178 24.9323 6.12603 25.1923 6.10028C25.2482 6.09456 25.3042 6.08883 25.3601 6.08311C25.5753 6.06308 25.7906 6.04019 26.0003 6.01444C26.059 6.00872 26.1205 6.00299 26.1792 5.99441C26.428 5.9658 26.674 5.93432 26.9145 5.90285C26.962 5.89713 27.0067 5.88854 27.0515 5.88282C27.2555 5.85707 27.454 5.82846 27.6497 5.79698C27.7084 5.7884 27.7672 5.77981 27.8259 5.77123Z" fill="#111111"/>
<path d="M34.3732 7.0245C34.5409 7.29633 34.7199 7.54812 34.9128 7.77416C34.7897 7.88575 34.5661 8.04599 34.1579 8.23483C34.1551 8.23483 34.1551 8.23769 34.1523 8.23769C34.0936 8.26631 34.0293 8.29206 33.9622 8.32067C33.9482 8.32639 33.9315 8.33498 33.9147 8.3407C33.856 8.36645 33.7945 8.38934 33.7302 8.41509C33.7078 8.42368 33.6855 8.43226 33.6603 8.44084C33.6519 8.44657 33.6407 8.44943 33.6323 8.45229C33.568 8.47518 33.5065 8.49807 33.4394 8.52096C33.3891 8.54099 33.3388 8.55816 33.2857 8.57533C33.2661 8.58105 33.2437 8.58963 33.2214 8.59535C33.1655 8.61538 33.1067 8.63255 33.0452 8.65258C32.9474 8.68405 32.844 8.71553 32.7321 8.74414C32.6483 8.76989 32.5616 8.79564 32.4637 8.8214C32.2597 8.87862 32.0444 8.93299 31.8068 8.98735C31.7564 8.9988 31.7061 9.0131 31.653 9.02455C31.6222 9.03313 31.5887 9.03886 31.5579 9.04744C31.502 9.05888 31.4489 9.07033 31.3874 9.08464C31.3287 9.09608 31.27 9.11039 31.2085 9.12183C31.1358 9.139 31.0631 9.15331 30.9904 9.16761C30.9429 9.17906 30.8982 9.18764 30.8478 9.19623C30.8171 9.20481 30.7835 9.21053 30.7528 9.21625C30.6298 9.24201 30.4984 9.2649 30.3698 9.29065L30.3139 9.29923C30.1992 9.31926 30.079 9.34215 29.9616 9.36218C29.8638 9.37935 29.7659 9.39652 29.6653 9.41368C29.601 9.42227 29.5339 9.43371 29.4668 9.44516C29.3298 9.46519 29.1928 9.48808 29.053 9.50811C28.958 9.52241 28.8601 9.53672 28.7623 9.55103C28.6588 9.56533 28.5554 9.57964 28.4491 9.59681C28.2898 9.61684 28.1276 9.63686 27.9627 9.65976C27.9152 9.66548 27.8676 9.6712 27.8201 9.67692L27.4846 9.71698C27.247 9.74846 27.0066 9.77135 26.7578 9.7971C26.5732 9.81713 26.3887 9.83716 26.193 9.85432C25.9107 9.88294 25.6199 9.91155 25.3292 9.93158C25.318 9.93444 25.3068 9.93444 25.2984 9.93444L25.0608 9.95447C24.8483 9.97164 24.633 9.9888 24.401 10.0031C24.3758 10.006 24.3507 10.006 24.3255 10.0088C24.2528 10.0146 24.1829 10.0203 24.113 10.0231C24.0571 10.026 24.004 10.0317 23.9453 10.0346C23.7943 10.046 23.6406 10.0518 23.4812 10.0603C23.2044 10.0804 22.9221 10.0947 22.6369 10.1061C22.5279 10.1118 22.4161 10.1176 22.3042 10.1204C22.0834 10.1319 21.8625 10.1405 21.6333 10.149C20.6156 10.1834 19.5756 10.2034 18.5189 10.2034C14.1436 10.2034 9.98366 9.88866 6.81336 9.3164C3.50607 8.72125 2.4493 8.06601 2.125 7.77989C2.3207 7.55098 2.50242 7.29633 2.66736 7.02164C2.97489 6.51233 3.19295 5.98585 3.34671 5.5166C3.3579 5.52519 3.37467 5.53377 3.38865 5.54235C3.46413 5.58813 3.54241 5.63678 3.62628 5.68256C3.65144 5.69686 3.6766 5.71117 3.70176 5.72261C3.8052 5.77984 3.91144 5.8342 4.02606 5.88571C4.04004 5.89143 4.05682 5.90001 4.07079 5.90574C4.17423 5.95152 4.28327 6.00016 4.39509 6.04594C4.42864 6.05739 4.46219 6.07169 4.49574 6.086C4.62434 6.1375 4.75853 6.18614 4.90111 6.23479C7.79185 7.24482 12.8828 7.8457 18.5189 7.8457C19.5784 7.8457 20.6156 7.8228 21.6221 7.78275C22.704 7.73983 23.7496 7.67116 24.7477 7.58246C25.6115 7.5052 26.439 7.4165 27.219 7.30777C27.2666 7.30205 27.3141 7.29633 27.3588 7.28774C28.0857 7.1876 28.7706 7.07315 29.4109 6.94439C30.4536 6.73837 31.3734 6.50375 32.1394 6.23479C32.282 6.18614 32.4134 6.1375 32.5448 6.086C32.5784 6.07169 32.6119 6.05739 32.6455 6.04594C32.7573 6.00016 32.8663 5.95152 32.9698 5.90574C32.9837 5.90001 33.0005 5.89143 33.0145 5.88571C33.1291 5.8342 33.2353 5.77984 33.3388 5.72261C33.364 5.70831 33.3891 5.69686 33.4143 5.68256C33.4981 5.63391 33.5792 5.58813 33.6547 5.53949C33.6687 5.53091 33.6827 5.52232 33.6938 5.5166C33.8504 5.98585 34.0685 6.51519 34.3732 7.0245Z" fill="#B5B5B6"/>
<path d="M33.711 59.3231C33.725 59.3203 33.7418 59.3146 33.7558 59.3088C33.4566 60.1558 33.3644 60.8454 33.3504 60.9541C33.3476 60.9827 33.3476 60.9999 33.3476 61.0285C33.1072 61.8897 27.8066 63.4978 18.5193 63.4978C9.23485 63.4978 3.93424 61.8897 3.69661 61.0428C3.69661 61.017 3.69381 60.9913 3.69102 60.9655C3.69102 60.9541 3.60994 60.2216 3.28564 59.3117C3.28844 59.3117 3.28844 59.3117 3.28844 59.3117C3.42263 59.3575 3.56242 59.4033 3.7022 59.4462C3.74134 59.4576 3.78048 59.4691 3.81682 59.4805C3.95661 59.5234 4.09639 59.5635 4.23897 59.6036C4.24736 59.6064 4.25575 59.6093 4.26134 59.6093C4.40951 59.6493 4.56048 59.6894 4.71424 59.7266C4.75617 59.738 4.8009 59.7466 4.84284 59.7581C4.99101 59.7924 5.13918 59.8296 5.29015 59.8611C5.30692 59.8668 5.3237 59.8697 5.33767 59.8725C5.49144 59.9068 5.648 59.9383 5.80735 59.9698C5.85488 59.9812 5.9052 59.9898 5.95272 59.9984C6.10649 60.0299 6.26305 60.0585 6.4196 60.0871C6.44197 60.0928 6.46433 60.0957 6.4867 60.0986C6.64605 60.1272 6.80541 60.1558 6.96756 60.1815C7.02067 60.1901 7.07379 60.1987 7.12691 60.2073C7.28347 60.233 7.44003 60.2588 7.59938 60.2817C7.62734 60.2845 7.65809 60.2903 7.68884 60.296C7.8482 60.3189 8.01035 60.3418 8.1697 60.3618C8.22841 60.3704 8.28432 60.379 8.34303 60.3847C8.4968 60.4076 8.65056 60.4276 8.80432 60.4448C8.84625 60.4505 8.88819 60.4562 8.93013 60.4619C9.08668 60.4791 9.24324 60.4991 9.3998 60.5163C9.45851 60.522 9.51442 60.5278 9.57313 60.5363C9.72969 60.5535 9.88625 60.5678 10.0428 60.585C10.0819 60.5907 10.1239 60.5936 10.1658 60.5964C10.3196 60.6136 10.4733 60.6279 10.6271 60.6422C10.6886 60.6479 10.7501 60.6536 10.8116 60.6594C10.9598 60.6737 11.108 60.6851 11.2533 60.6994C11.3037 60.7023 11.354 60.708 11.4043 60.7109C11.5497 60.7223 11.6951 60.7366 11.8404 60.7452C11.9019 60.7509 11.9634 60.7567 12.0249 60.7595C12.1703 60.771 12.3129 60.7824 12.4555 60.791C12.5002 60.7939 12.5477 60.7996 12.5925 60.8024C12.735 60.811 12.8776 60.8196 13.0174 60.8282C13.0761 60.8339 13.1348 60.8368 13.1935 60.8396C13.3277 60.8482 13.4591 60.8568 13.5905 60.8654C13.6436 60.8682 13.6968 60.8711 13.7499 60.874C13.8813 60.8797 14.0099 60.8883 14.1385 60.894L14.2978 60.9026C14.4264 60.9083 14.5522 60.914 14.678 60.9197C14.7228 60.9226 14.7647 60.9255 14.8094 60.9255C14.9325 60.9312 15.0555 60.9369 15.1757 60.9426C15.2232 60.9426 15.2707 60.9455 15.3211 60.9484C15.4385 60.9512 15.5559 60.9569 15.6705 60.9598C15.7069 60.9627 15.7432 60.9627 15.7795 60.9655C15.8942 60.9684 16.0032 60.9713 16.1094 60.9741C16.1542 60.977 16.1961 60.977 16.238 60.9798C16.3527 60.9827 16.4645 60.9856 16.5707 60.9884C16.5847 60.9884 16.5987 60.9884 16.6127 60.9913C16.7217 60.9941 16.8223 60.9941 16.923 60.997C16.9621 60.9999 16.9985 60.9999 17.0376 60.9999C17.1327 61.0027 17.2277 61.0056 17.3172 61.0056H17.3367C17.429 61.0085 17.5129 61.0084 17.5967 61.0113H17.6778C17.7589 61.0142 17.8344 61.0142 17.9043 61.0142C17.9043 61.0142 17.9071 61.0142 17.9099 61.0142C17.9825 61.017 18.044 61.017 18.1056 61.017H18.1643C18.2174 61.0199 18.2677 61.0199 18.3096 61.0199H18.5193C21.3541 61.0199 24.175 60.8854 26.6715 60.6308C26.8532 60.6136 27.0294 60.5964 27.1971 60.5735C27.2027 60.5735 27.2111 60.5735 27.2195 60.5707C27.2362 60.5707 27.253 60.5678 27.2698 60.5649C27.5773 60.5306 27.8737 60.4963 28.1644 60.4591C28.2036 60.4562 28.2427 60.4505 28.2818 60.4448C28.5726 60.4076 28.8549 60.3704 29.1289 60.3303C29.1765 60.3217 29.2212 60.316 29.2687 60.3103C29.5371 60.2702 29.7971 60.2302 30.0515 60.1873C30.0962 60.1787 30.141 60.173 30.1857 60.1644C30.4373 60.1214 30.6833 60.0785 30.921 60.0327C30.9573 60.0242 30.9964 60.0184 31.0328 60.0099C31.2732 59.9641 31.5053 59.9154 31.7289 59.8668C31.7569 59.8611 31.782 59.8525 31.8072 59.8468C32.0392 59.7953 32.2629 59.7438 32.4782 59.6894C32.4865 59.6865 32.4949 59.6837 32.5033 59.6808C32.7186 59.6264 32.9255 59.5692 33.124 59.5091C33.1351 59.5063 33.1491 59.5034 33.1603 59.5005C33.3532 59.4433 33.5349 59.3832 33.711 59.3231Z" fill="#B5B5B6"/>
<path d="M33.3418 3.95433C33.339 3.95433 33.339 3.95719 33.3418 3.95433C33.3362 3.96005 33.3362 3.96291 33.3334 3.96577C33.3307 3.96863 33.3307 3.97435 33.3279 3.97722C33.3251 3.98008 33.3223 3.9858 33.3195 3.98866C33.3139 3.99438 33.3111 4.00011 33.3055 4.00583C33.3027 4.01155 33.2999 4.01441 33.2943 4.02014C33.2887 4.02872 33.2831 4.03444 33.2775 4.04303L33.2272 4.09453C33.2244 4.09739 33.2216 4.10025 33.216 4.10311C33.1993 4.12028 33.1797 4.13745 33.1601 4.15462C33.1517 4.16034 33.1433 4.16892 33.135 4.17465C33.1182 4.18609 33.1042 4.2004 33.0874 4.21184C33.0762 4.22043 33.0651 4.22901 33.0511 4.23759C33.0343 4.24904 33.0175 4.26335 32.998 4.27479C32.984 4.28337 32.97 4.29482 32.956 4.3034C32.9365 4.31771 32.9141 4.32916 32.8917 4.34346C32.875 4.35491 32.8582 4.36349 32.8414 4.37494C32.8162 4.38924 32.7939 4.40355 32.7659 4.41786C32.7464 4.42644 32.7268 4.43788 32.7072 4.44933C32.6793 4.46364 32.6513 4.4808 32.6205 4.49511C32.5982 4.50656 32.5758 4.518 32.5507 4.52945C32.5199 4.54661 32.4864 4.56092 32.45 4.57809C32.4249 4.58953 32.3997 4.60098 32.3717 4.61242C32.3354 4.62959 32.2962 4.64676 32.2543 4.66393C32.2264 4.67537 32.2012 4.68682 32.1704 4.70112C32.1229 4.71829 32.0726 4.73832 32.0223 4.75835C31.9971 4.76979 31.972 4.77838 31.944 4.78982C31.9188 4.79841 31.8937 4.80699 31.8685 4.81558C28.5249 4.06019 23.6828 3.62528 18.5191 3.62528C13.3583 3.62528 8.51338 4.06019 5.17254 4.81558C5.14459 4.80699 5.11663 4.79555 5.09147 4.78696C5.06631 4.77838 5.04674 4.76979 5.02158 4.76121C4.96566 4.73832 4.90975 4.71543 4.85663 4.6954C4.83706 4.68682 4.81749 4.67823 4.79792 4.66965C4.7476 4.64962 4.69728 4.62673 4.64975 4.6067C4.63857 4.60098 4.63018 4.59526 4.619 4.58953C4.56588 4.56664 4.51556 4.54375 4.46803 4.52086C4.46524 4.518 4.46524 4.518 4.46244 4.518C3.84459 4.21184 3.71599 3.99152 3.69922 3.96005C3.9732 3.09594 9.27101 1.5022 18.5191 1.5022C27.7449 1.5022 33.0399 3.08735 33.3418 3.95433Z" fill="#595757"/>
<path d="M28.469 5.66536C28.2593 5.70256 28.0469 5.7369 27.826 5.77123C27.7673 5.77982 27.7086 5.7884 27.6499 5.79698C27.4542 5.82846 27.2557 5.85707 27.0516 5.88282C27.0069 5.88854 26.9621 5.89713 26.9146 5.90285C26.6742 5.93432 26.4282 5.9658 26.1793 5.99441C26.1206 6.003 26.0591 6.00872 26.0004 6.01444C25.7907 6.04019 25.5755 6.06308 25.3602 6.08311C25.3043 6.08883 25.2484 6.09456 25.1925 6.10028C24.9325 6.12603 24.6669 6.15178 24.4013 6.17467C24.3454 6.17753 24.2867 6.18326 24.2307 6.18898C24.0071 6.20615 23.7778 6.22332 23.5486 6.24048C23.4815 6.24334 23.4172 6.24907 23.3501 6.25479C23.0761 6.27196 22.7966 6.28913 22.517 6.30629C22.4695 6.30915 22.4191 6.30915 22.3716 6.31202C22.1284 6.32632 21.8852 6.33777 21.6391 6.34921C21.5637 6.35207 21.491 6.35493 21.4183 6.3578C21.1303 6.36924 20.8396 6.37783 20.546 6.38641C20.5181 6.38641 20.4873 6.38927 20.4566 6.38927C20.191 6.39499 19.9226 6.40072 19.6542 6.40358C19.5759 6.40644 19.4977 6.40644 19.4194 6.4093C19.1202 6.41216 18.8211 6.41502 18.5192 6.41502C18.22 6.41502 17.9209 6.41216 17.6218 6.4093C17.5435 6.40644 17.4652 6.40644 17.3869 6.40358C17.1185 6.40072 16.8501 6.39499 16.5846 6.38927C16.5538 6.38927 16.5231 6.38641 16.4923 6.38641C16.2015 6.37783 15.9108 6.36924 15.6228 6.3578C15.5502 6.35493 15.4747 6.35207 15.402 6.34921C15.156 6.33777 14.9099 6.32632 14.6667 6.31202C14.6192 6.30915 14.5717 6.30915 14.5241 6.30629C14.2446 6.28913 13.965 6.27196 13.6882 6.25479C13.6239 6.24907 13.5596 6.24334 13.4925 6.24048C13.2633 6.22332 13.034 6.20615 12.8076 6.18898C12.7517 6.18326 12.6958 6.17753 12.6398 6.17467C12.3743 6.15178 12.1087 6.12603 11.8487 6.10028C11.7928 6.09456 11.7368 6.08883 11.6809 6.08311C11.4629 6.06308 11.2504 6.04019 11.0379 6.01444C10.9792 6.00872 10.9205 6.003 10.8618 5.99441C10.613 5.9658 10.367 5.93432 10.1265 5.90285C10.079 5.89713 10.0343 5.88854 9.98954 5.88282C9.78546 5.85707 9.58696 5.82846 9.38847 5.79698C9.32976 5.7884 9.27105 5.77982 9.21514 5.77123C8.99428 5.7369 8.77901 5.70256 8.56934 5.66536C11.4349 5.27337 14.8932 5.05591 18.5192 5.05591C22.148 5.05591 25.6062 5.27337 28.469 5.66536Z" fill="#898989"/>
<path d="M35.0556 56.974C35.0556 56.9825 35.0528 56.994 35.0528 57.0026C35.0528 57.0054 35.05 57.0112 35.0472 57.0169C35.0444 57.0226 35.0416 57.0283 35.0388 57.0369C35.036 57.0398 35.0305 57.0455 35.0277 57.0512C35.0221 57.0598 35.0165 57.0684 35.0109 57.0741C35.0081 57.0798 35.0025 57.0856 34.9969 57.0913C34.9913 57.0999 34.9829 57.1084 34.9745 57.117C34.9689 57.1256 34.9634 57.1313 34.955 57.1399L34.9298 57.1657C34.9214 57.1714 34.9102 57.18 34.9019 57.1886C34.8907 57.1971 34.8823 57.2057 34.8711 57.2143C34.8599 57.2229 34.8459 57.2343 34.8348 57.2429C34.8236 57.2515 34.8124 57.2601 34.8012 57.2687C34.7872 57.2801 34.7705 57.2916 34.7537 57.3002C34.7425 57.3087 34.7313 57.3173 34.7201 57.3259C34.7006 57.3373 34.6782 57.3517 34.6558 57.366C34.6474 57.3717 34.6363 57.3774 34.6251 57.386C34.5999 57.4003 34.572 57.4175 34.544 57.4318C34.5356 57.4375 34.5272 57.4432 34.516 57.4489C34.4853 57.4661 34.449 57.4833 34.4126 57.5033C34.407 57.5062 34.4014 57.509 34.3958 57.5119C34.3539 57.5348 34.3092 57.5548 34.2644 57.5777C34.2616 57.5777 34.2616 57.5777 34.2588 57.5806C33.244 58.0641 31.1137 58.705 27.0488 59.1514C27.0208 59.1543 26.9929 59.16 26.9649 59.16C25.992 55.0168 24.9436 47.1712 28.4662 40.0323C33.8479 29.125 34.9885 19.594 30.7698 10.6725C31.9161 10.4608 32.9784 10.2004 33.8702 9.88281C33.8786 9.87995 33.887 9.87708 33.8954 9.87422C34.0659 9.81413 34.2253 9.75691 34.3679 9.69682C34.4713 9.65676 34.5664 9.61671 34.6419 9.58237C34.7788 9.51942 34.9102 9.45647 35.0277 9.39639C35.036 9.39066 35.0444 9.3878 35.0528 9.38208L35.0556 56.974Z" fill="#BB6BD9"/>
<path d="M28.466 40.0323C24.9434 47.1713 25.9918 55.0169 26.9647 59.1601C26.8249 59.1801 26.6823 59.1916 26.5369 59.2059C26.481 59.2116 26.4251 59.2173 26.3664 59.223C25.0468 55.263 23.2045 47.3372 26.2015 39.7433C30.5096 28.839 31.0016 19.5369 26.6292 11.2477C26.7215 11.242 26.8109 11.2306 26.9004 11.222C27.1576 11.1962 27.4092 11.1676 27.6496 11.1361L28.0186 11.0932C28.6085 11.0217 29.1621 10.9416 29.6877 10.8557C30.0567 10.7985 30.4173 10.7384 30.7696 10.6726C34.9883 19.5941 33.8476 29.1251 28.466 40.0323Z" fill="white"/>
<path d="M26.3666 59.2231C23.954 59.4634 21.2449 59.5893 18.5191 59.5893C14.1411 59.5893 9.98393 59.2746 6.81083 58.7023C2.41882 57.9098 1.99387 57.017 1.98828 57.017V9.36792C2.20634 9.48809 2.44677 9.59968 2.70677 9.70555C2.70677 9.70555 2.70677 9.70555 2.70957 9.70555C7.32803 11.6055 17.946 11.6341 18.5191 11.6341C18.8546 11.6341 19.1901 11.6312 19.5228 11.6283H19.5899C19.8275 11.6255 20.0624 11.6226 20.2944 11.6169C20.7501 11.6083 21.2002 11.5969 21.6447 11.5797C21.9662 11.5683 22.2793 11.5568 22.5925 11.5425C22.9196 11.5282 23.2466 11.511 23.5598 11.491C23.7247 11.4824 23.8841 11.471 24.0322 11.4624C24.1972 11.4509 24.3621 11.4424 24.5075 11.4309C24.7284 11.4137 24.9492 11.3966 25.1673 11.3794L25.4273 11.3594C25.7292 11.3365 26.0311 11.3079 26.3219 11.2793C26.4253 11.2707 26.526 11.2592 26.6294 11.2478C31.0019 19.537 30.5098 28.839 26.2017 39.7434C23.2047 47.3373 25.0471 55.2631 26.3666 59.2231Z" fill="#BB6BD9"/>
<path d="M9.65405 46.5705C9.65405 46.1813 9.79104 45.8838 10.0622 45.6749C10.2775 45.5061 10.5375 45.4231 10.845 45.4231C11.3958 45.4231 12.022 45.6119 12.7265 45.9896C13.3332 46.3215 13.8783 46.7336 14.3592 47.2257C14.6723 47.5519 14.8261 47.8066 14.8261 47.9925C14.8261 48.1156 14.7674 48.2272 14.6471 48.333C14.5633 48.4074 14.4654 48.4475 14.3592 48.4475C14.1607 48.4475 13.9342 48.2701 13.6798 47.9153C13.3164 47.4146 12.9194 47.0197 12.4889 46.7221C11.8654 46.2872 11.3371 46.0697 10.9065 46.0697C10.7304 46.0697 10.599 46.1098 10.5151 46.1871C10.4313 46.2643 10.3865 46.3816 10.3865 46.539C10.3865 46.8595 10.613 47.3115 11.0659 47.8981C11.5775 48.5648 12.2708 49.2715 13.1515 50.0126C14.2697 50.9597 15.3684 51.6779 16.4532 52.1729C17.5742 52.6793 18.5331 52.934 19.3271 52.934C19.7073 52.934 20.0316 52.8224 20.2972 52.5935C20.5991 52.3446 20.7473 52.0384 20.7473 51.6779C20.7473 51.0513 20.272 50.2615 19.3187 49.3087C19.0308 49.0255 18.6086 48.6793 18.0607 48.2729C17.7084 48.0068 17.4596 47.8352 17.3114 47.7579C17.1465 47.6721 17.0654 47.5691 17.0654 47.4518C17.0654 47.323 17.1241 47.26 17.2443 47.26C17.4987 47.26 18.0718 47.5862 18.9637 48.2357C19.7073 48.7765 20.314 49.3717 20.7837 50.0212C21.312 50.7537 21.5748 51.4433 21.5748 52.0928C21.5748 52.7709 21.2785 53.2974 20.6802 53.6693C20.3 53.9068 19.8667 54.027 19.3774 54.027C18.1529 54.027 16.6069 53.4347 14.7394 52.2501C13.1515 51.2401 11.871 50.1757 10.9009 49.0541C10.0706 48.0898 9.65405 47.26 9.65405 46.5705Z" fill="white"/>
<path d="M15.1086 43.6006C15.1086 43.1256 15.391 42.8853 15.9585 42.8853C16.7134 42.8853 17.6695 43.2429 18.8269 43.9554C20.0794 44.7336 20.7084 45.4862 20.7084 46.2101C20.7084 46.5477 20.5546 46.7938 20.2499 46.9511C20.0961 47.0313 19.9116 47.0742 19.6964 47.0742C18.9695 47.0742 18.1811 46.8195 17.3312 46.3074C16.5428 45.8324 15.9306 45.2716 15.4944 44.6278C15.2344 44.2501 15.1086 43.9067 15.1086 43.6006ZM18.3237 44.5047C18.2091 44.6507 18.1224 44.7222 18.0609 44.7222C18.0162 44.7222 17.8903 44.6306 17.6863 44.4447C17.1131 43.921 16.6519 43.6607 16.2996 43.6607C16.2549 43.6607 16.2101 43.675 16.1626 43.7036C16.0787 43.7494 16.034 43.8238 16.034 43.921C16.034 44.107 16.2101 44.3788 16.5624 44.7394C17.0153 45.2029 17.485 45.5577 17.9658 45.8009C18.5166 46.0842 18.9723 46.2272 19.3357 46.2272C19.4308 46.2272 19.5174 46.2015 19.5901 46.15C19.6936 46.0756 19.7439 45.9783 19.7439 45.8639C19.7439 45.5863 19.5398 45.2859 19.1316 44.9683C18.9611 44.8281 18.785 44.7165 18.6032 44.6278C18.4243 44.5419 18.3293 44.499 18.3237 44.5047Z" fill="white"/>
<path d="M17.7699 41.3973C18.2116 41.5719 18.5695 41.7035 18.8407 41.7893C19.1119 41.8752 19.302 41.921 19.411 41.921C19.5536 41.921 19.6235 41.8523 19.6235 41.7121C19.6235 41.5032 19.4306 41.2343 19.0448 40.9023C18.8574 40.745 18.5192 40.5132 18.0327 40.2071C17.8398 40.084 17.7448 39.9581 17.7448 39.8236C17.7448 39.672 17.8147 39.5976 17.9572 39.5976C18.2005 39.5976 18.6953 39.8837 19.4389 40.4588C20.2161 41.0569 20.6047 41.6119 20.6047 42.1213C20.6047 42.3416 20.5153 42.5218 20.3336 42.662C20.2022 42.7593 20.0456 42.8108 19.8583 42.8108C19.5396 42.8108 19.1007 42.7107 18.5387 42.5161C17.9768 42.3187 17.2947 42.0268 16.4895 41.6377C14.4431 40.6391 12.7545 39.6205 11.4265 38.5818C10.3614 37.7521 9.82739 37.0625 9.82739 36.5188C9.82739 36.3443 9.89169 36.2012 10.0231 36.0925C10.1545 35.9752 10.3027 35.918 10.4732 35.918C11.2672 35.918 12.5895 36.6447 14.4375 38.0954C15.2594 38.7449 16.0813 39.5232 16.9061 40.4302C17.1185 40.6591 17.4065 40.9853 17.7699 41.3973ZM16.4168 40.7793C15.4076 39.5718 14.1299 38.4931 12.5895 37.5403C11.79 37.0482 11.2588 36.7992 10.9988 36.7992C10.873 36.7992 10.8115 36.8536 10.8115 36.9652C10.8115 37.2857 11.4321 37.8665 12.6734 38.7077C13.6938 39.403 14.9435 40.0955 16.4168 40.7793Z" fill="white"/>
<path d="M19.1901 36.4329C19.52 36.6247 19.7968 36.8135 20.0232 36.9995C20.465 37.3657 20.6858 37.7291 20.6858 38.0868C20.6858 38.4015 20.5404 38.6447 20.2525 38.8193C20.0652 38.9308 19.8443 38.9852 19.5899 38.9852C18.9609 38.9852 18.2647 38.7821 17.5043 38.3758C16.66 37.9237 16.0086 37.3772 15.5557 36.7391C15.2622 36.3214 15.114 35.9179 15.114 35.5288C15.114 35.2856 15.1867 35.0824 15.3349 34.9193C15.4663 34.7791 15.6116 34.7104 15.7766 34.7104C15.9024 34.7104 16.0757 34.7591 16.2966 34.8592C16.4168 34.7705 16.5202 34.7276 16.6125 34.7276C16.7327 34.7276 16.9284 34.8077 17.1996 34.9708C17.4764 35.1396 17.8454 35.3085 18.3067 35.4773C18.7959 35.6575 19.1873 35.7462 19.4809 35.7462C19.7185 35.7462 19.9142 35.6747 20.068 35.5288C20.1071 35.4887 20.1742 35.3685 20.2637 35.1711C20.3308 35.0252 20.451 34.9537 20.6215 34.9537C20.7305 34.9537 20.8172 34.9937 20.8843 35.0767C20.957 35.1625 20.9961 35.2655 20.9961 35.3829C20.9961 35.6976 20.8591 35.9666 20.588 36.1926C20.3671 36.3786 20.0875 36.4701 19.7549 36.4701C19.6402 36.4701 19.4529 36.4587 19.1901 36.4329ZM16.3916 35.3457C16.2658 35.4143 16.1736 35.4916 16.1149 35.5717C16.0562 35.6518 16.0254 35.7405 16.0254 35.8321C16.0254 36.2727 16.4028 36.7534 17.1577 37.2684C17.9908 37.8378 18.6981 38.1211 19.2768 38.1211C19.4194 38.1211 19.5256 38.0925 19.6011 38.0381C19.6738 37.9838 19.7129 37.9008 19.7129 37.7892C19.7129 37.5117 19.425 37.1855 18.8463 36.8135C18.5275 36.6046 18.0607 36.3471 17.4428 36.0381C17.0402 35.8349 16.7746 35.6861 16.6433 35.5946C16.5706 35.5517 16.4895 35.4687 16.3916 35.3457Z" fill="white"/>
<path d="M12.8386 28.9047C12.8386 28.5156 12.9756 28.218 13.2468 28.0091C13.4621 27.8403 13.7221 27.7573 14.0296 27.7573C14.5803 27.7573 15.2066 27.9462 15.9111 28.3239C16.5177 28.6558 17.0629 29.0678 17.5438 29.5599C17.8569 29.8861 18.0106 30.1408 18.0106 30.3268C18.0106 30.4498 17.9519 30.5614 17.8317 30.6673C17.7478 30.7417 17.65 30.7817 17.5438 30.7817C17.3453 30.7817 17.1188 30.6043 16.8644 30.2495C16.501 29.7488 16.104 29.3539 15.6734 29.0564C15.05 28.6214 14.5216 28.404 14.0911 28.404C13.915 28.404 13.7836 28.444 13.6997 28.5213C13.6158 28.5985 13.5711 28.7159 13.5711 28.8732C13.5711 29.1937 13.7975 29.6458 14.2504 30.2323C14.7621 30.899 15.4554 31.6058 16.336 32.3468C17.4543 33.2939 18.553 34.0121 19.6377 34.5071C20.7616 35.0193 21.7205 35.2739 22.5145 35.2739C22.8947 35.2739 23.219 35.1595 23.4846 34.9334C23.7865 34.6845 23.9347 34.3784 23.9347 34.0178C23.9347 33.3912 23.4594 32.6015 22.5061 31.6487C22.2181 31.3654 21.796 31.0192 21.248 30.6129C20.8958 30.3468 20.647 30.1751 20.4988 30.0979C20.3338 30.012 20.2528 29.909 20.2528 29.7917C20.2528 29.6629 20.3115 29.6 20.4317 29.6C20.6861 29.6 21.2592 29.9262 22.151 30.5757C22.8947 31.1165 23.5014 31.7116 23.971 32.3611C24.4994 33.0936 24.7622 33.7832 24.7622 34.4327C24.7622 35.1108 24.4659 35.6373 23.8676 36.0093C23.4874 36.2468 23.054 36.367 22.5648 36.367C21.3403 36.367 19.7943 35.7747 17.9268 34.5901C16.3388 33.5801 15.0584 32.5157 14.0883 31.394C13.2552 30.4269 12.8386 29.5971 12.8386 28.9047Z" fill="white"/>
<path d="M18.2932 25.9377C18.2932 25.4628 18.5756 25.2224 19.1431 25.2224C19.8979 25.2224 20.8541 25.5801 22.0115 26.2925C23.2639 27.0708 23.893 27.8233 23.893 28.5472C23.893 28.8849 23.7392 29.1309 23.4345 29.2883C23.2807 29.3684 23.0962 29.4113 22.8809 29.4113C22.1541 29.4113 21.3657 29.1567 20.5158 28.6445C19.7274 28.1695 19.1151 27.6087 18.679 26.9649C18.419 26.5872 18.2932 26.2439 18.2932 25.9377ZM21.5082 26.8419C21.3936 26.9878 21.307 27.0594 21.2455 27.0594C21.2007 27.0594 21.0749 26.9678 20.8708 26.7818C20.2977 26.2582 19.8364 25.9978 19.4842 25.9978C19.4394 25.9978 19.3947 26.0121 19.3472 26.0407C19.2633 26.0865 19.2186 26.1609 19.2186 26.2582C19.2186 26.4442 19.3947 26.716 19.747 27.0765C20.1999 27.5401 20.6695 27.8949 21.1504 28.1381C21.7011 28.4213 22.1568 28.5644 22.5203 28.5644C22.6153 28.5644 22.702 28.5386 22.7747 28.4871C22.8781 28.4128 22.9285 28.3155 22.9285 28.201C22.9285 27.9235 22.7244 27.623 22.3162 27.3054C22.1457 27.1652 21.9695 27.0536 21.7878 26.9649C21.6089 26.8762 21.5138 26.8362 21.5082 26.8419Z" fill="white"/>
<path d="M20.9545 23.7344C21.3962 23.909 21.7541 24.0406 22.0252 24.1264C22.2964 24.2123 22.4865 24.2581 22.5956 24.2581C22.7381 24.2581 22.808 24.1894 22.808 24.0492C22.808 23.8403 22.6151 23.5713 22.2293 23.2394C22.042 23.0821 21.7037 22.8503 21.2173 22.5441C21.0272 22.4182 20.9293 22.2923 20.9293 22.1579C20.9293 22.0062 20.9992 21.9318 21.1418 21.9318C21.385 21.9318 21.8799 22.218 22.6235 22.7931C23.4007 23.3911 23.7893 23.9462 23.7893 24.4555C23.7893 24.6758 23.6999 24.8561 23.5181 24.9963C23.3867 25.0935 23.2302 25.1451 23.0429 25.1451C22.7242 25.1451 22.2852 25.0449 21.7233 24.8503C21.1614 24.6529 20.4792 24.3611 19.6741 23.9719C17.6276 22.9733 15.939 21.9547 14.6111 20.9161C13.5459 20.0863 13.012 19.3967 13.012 18.8531C13.012 18.6785 13.0763 18.5355 13.2077 18.4267C13.3391 18.3094 13.4872 18.2522 13.6578 18.2522C14.4517 18.2522 15.7741 18.979 17.622 20.4296C18.444 21.0792 19.2659 21.8574 20.0906 22.7645C20.3031 22.9962 20.5939 23.3224 20.9545 23.7344ZM19.6014 23.1135C18.5921 21.9061 17.3145 20.8274 15.7741 19.8745C14.9745 19.3824 14.4434 19.1335 14.1834 19.1335C14.0575 19.1335 13.996 19.1878 13.996 19.2994C13.996 19.6199 14.6167 20.2007 15.858 21.042C16.8812 21.7401 18.1281 22.4297 19.6014 23.1135Z" fill="white"/>
<path d="M22.3774 18.7701C22.7073 18.9618 22.984 19.1507 23.2105 19.3366C23.6522 19.7029 23.8731 20.0663 23.8731 20.4239C23.8731 20.7387 23.7277 20.9819 23.4397 21.1564C23.2524 21.268 23.0316 21.3224 22.7772 21.3224C22.1481 21.3224 21.452 21.1192 20.6916 20.7129C19.8473 20.2608 19.1959 19.7143 18.743 19.0763C18.4494 18.6585 18.3013 18.2551 18.3013 17.8659C18.3013 17.6227 18.374 17.4196 18.5221 17.2565C18.6535 17.1163 18.7989 17.0476 18.9638 17.0476C19.0897 17.0476 19.263 17.0962 19.4838 17.1964C19.6041 17.1077 19.7075 17.0648 19.7998 17.0648C19.92 17.0648 20.1157 17.1449 20.3868 17.308C20.6636 17.4768 21.0326 17.6456 21.4939 17.8144C21.9832 17.9947 22.3746 18.0834 22.6681 18.0834C22.9058 18.0834 23.1015 18.0119 23.2552 17.8659C23.2944 17.8259 23.3615 17.7057 23.4509 17.5083C23.518 17.3623 23.6382 17.2908 23.8088 17.2908C23.9178 17.2908 24.0045 17.3309 24.0716 17.4139C24.1442 17.4997 24.1834 17.6027 24.1834 17.72C24.1834 18.0348 24.0464 18.3037 23.7752 18.5298C23.5544 18.7157 23.2748 18.8073 22.9421 18.8073C22.8247 18.8044 22.6374 18.793 22.3774 18.7701ZM19.5761 17.6828C19.4503 17.7515 19.358 17.8287 19.2993 17.9089C19.2406 17.989 19.2099 18.0777 19.2099 18.1692C19.2099 18.6099 19.5873 19.0906 20.3421 19.6056C21.1752 20.175 21.8825 20.4583 22.4612 20.4583C22.6038 20.4583 22.7101 20.4297 22.7855 20.3753C22.8582 20.3209 22.8974 20.238 22.8974 20.1264C22.8974 19.8488 22.6094 19.5226 22.0307 19.1507C21.712 18.9418 21.2451 18.6843 20.6273 18.3752C20.2247 18.1721 19.9591 18.0233 19.8277 17.9317C19.755 17.8888 19.674 17.803 19.5761 17.6828Z" fill="white"/>
</g>
<defs>
<clipPath id="clip0_60_1756">
<rect width="36" height="65" fill="white" transform="translate(0.520508)"/>
</clipPath>
</defs>
</svg>
